# xmcd CD database file
#
# Track frame offsets:
#	150
#	11472
#	23555
#	36050
#	46547
#	56910
#	67792
#	78052
#	91740
#	103365
#	115067
#	125622
#	138510
#	149842
#	162825
#	177787
#	189945
#	202437
#	214570
#	227595
#	238084
#	251262
#	260782
#	274317
#	286167
#	297280
#	309975
#
# Disc length: 4317 seconds
#
# Revision: 0
# Processed by: cddbd v1.5.2PL0 Copyright (c) Steve Scherf et al.
# Submitted via: CDex 1.70beta2
#
DISCID=7f10db1b
DTITLE=Jones Classic Country - Jones Classic Country CCC-604
DYEAR=0000
DGENRE=Country
TTITLE0=Little Jimmy Dickens/May The Bird Of Paradise Fly Up Your Nose
TTITLE1=Carl Smith/Are You Teasing Me
TTITLE2=Stonewall Jackson/A Wound Time Can't Erase
TTITLE3=Porter Wagoner/Big Wind
TTITLE4=Johnnie and Jack/Goodnight, Sweetheart, Goodnight
TTITLE5=Tompall and The Glaser Brothers/Rings
TTITLE6=Jim Reeves/Blue Boy
TTITLE7=Merle Haggard/I'm A Lonesome Fugitive
TTITLE8=Sonny James/Take Good Care Of Her
TTITLE9=Hank Locklin/Send Me The Pillow You Dream On
TTITLE10=Loretta Lynn/Honky Tonk Girl
TTITLE11=Mickey Gilley/City Lights
TTITLE12=Hank Thompson/Honky Tonk Girl
TTITLE13=Lynn Anderson/Rose Garden
TTITLE14=Asleep At The Wheel/Letter That Johnny Walker Read
TTITLE15=Eddy Arnold/I Want To Go With You
TTITLE16=Ray Price/Release Me (And Let Me Love Again)
TTITLE17=Kitty Wells/Heartbreak USA
TTITLE18=Patsy Cline/I Fall To Pieces
TTITLE19=Carl Perkins/Blue Suede Shoes
TTITLE20=Conway Twitty/Next In Line
TTITLE21=Elvis Presley/Don't Be Cruel
TTITLE22=Dolly Parton/I WIll Always Love You
TTITLE23=Carl Smith/Loose Talk
TTITLE24=Hank Williams/Why Don't You Love Me
TTITLE25=Don Gibson/Just One Time
TTITLE26=Tanya Tucker/Blood Red And Goin' Down
EXTD=YEAR: 0000
EXTT0=
EXTT1=
EXTT2=
EXTT3=
EXTT4=
EXTT5=
EXTT6=
EXTT7=
EXTT8=
EXTT9=
EXTT10=
EXTT11=
EXTT12=
EXTT13=
EXTT14=
EXTT15=
EXTT16=
EXTT17=
EXTT18=
EXTT19=
EXTT20=
EXTT21=
EXTT22=
EXTT23=
EXTT24=
EXTT25=
EXTT26=
PLAYORDER=
